<svg version="1.1" xmlns="http://www.w3.org/2000/svg" xmlns:xlink="http://www.w3.org/1999/xlink" width="29.94984" height="26.89484" viewBox="0,0,29.94984,26.89484"><defs><linearGradient x1="226.55258" y1="180.00026" x2="253.44742" y2="180.00026" gradientUnits="userSpaceOnUse" id="color-1"><stop offset="0" stop-color="#8dc63f"/><stop offset="1" stop-color="#006838"/></linearGradient><radialGradient cx="240" cy="179.99994" r="10.99883" gradientUnits="userSpaceOnUse" id="color-2"><stop offset="0" stop-color="#d7df23"/><stop offset="1" stop-color="#009444"/></radialGradient></defs><g transform="translate(-226.55258,-166.55258)"><g data-paper-data="{&quot;isPaintingLayer&quot;:true}" fill-rule="nonzero" stroke="none" stroke-width="1" stroke-linecap="butt" stroke-linejoin="miter" stroke-miterlimit="10" stroke-dasharray="" stroke-dashoffset="0" style="mix-blend-mode: normal"><g><path d="M253.44742,180c0,7.41455 -6.03222,13.44742 -13.44742,13.44742c-7.41488,0 -13.44742,-6.03287 -13.44742,-13.44742c0,-7.41488 6.03222,-13.44742 13.44742,-13.44742c7.4152,0 13.44742,6.03287 13.44742,13.44742z" fill="url(#color-1)"/><path d="M229.00098,180c0,-6.07459 4.92443,-10.99902 10.99902,-10.99902c6.07459,0 10.99902,4.92443 10.99902,10.99902c0,6.07459 -4.92443,10.99902 -10.99902,10.99902c-6.07459,0 -10.99902,-4.92443 -10.99902,-10.99902z" fill="url(#color-2)"/></g><text transform="translate(232.59118,174.05102) rotate(76.14549) scale(0.5,0.5)" font-size="40" xml:space="preserve" fill="#000000" fill-rule="nonzero" stroke="none" stroke-width="1" stroke-linecap="butt" stroke-linejoin="miter" stroke-miterlimit="10" stroke-dasharray="" stroke-dashoffset="0" font-family="Marker" font-weight="normal" text-anchor="start" style="mix-blend-mode: normal"><tspan x="0" dy="0">&gt;</tspan></text></g></g></svg>